<svg xmlns="http://www.w3.org/2000/svg" xmlns:xlink="http://www.w3.org/1999/xlink"><defs>
<clipPath id="clip0_0_182">
<rect width="18.9087" height="31.0296" fill="white" transform="translate(15.5215 0.877197) rotate(30)"/>
</clipPath>

<clipPath id="clip0_0_252">
<rect width="8.53125" height="14" fill="white"/>
</clipPath>

<clipPath id="clip0_0_213">
<rect width="13" height="21.3333" fill="white" transform="translate(0 0.589722)"/>
</clipPath>

<clipPath id="clip0_0_143">
<rect width="13" height="21.3333" fill="white" transform="translate(0 0.512939)"/>
</clipPath>
</defs><symbol id="ethereum-black" viewBox="0 0 32 38"><g fill="none">
<g id="ethereum 2" clip-path="url(#clip0_0_182)">
<path id="Vector" d="M23.5794 23.7803L12.9942 24.1631L8.02793 14.8017L23.7091 5.60434L23.5794 23.7803ZM12.0912 25.7272L7.12492 16.3657L8.19429 32.4768L22.6815 25.3474L12.0912 25.7272Z" fill="black"/>
</g>

</g></symbol><symbol id="ethereum-green" viewBox="0 0 9 14"><g fill="none">
<g id="ethereum 2" clip-path="url(#clip0_0_252)">
<path id="Vector" d="M8.31533 7.13126L4.26566 9.66876L0.213318 7.13126L4.26566 0L8.31533 7.13126ZM4.26566 10.4836L0.213318 7.9461L4.26566 14L8.318 7.9461L4.26566 10.4836Z" fill="#00AC4F"/>
</g>

</g></symbol><symbol id="ethereum-grey" viewBox="0 0 13 22"><g fill="none">
<g clip-path="url(#clip0_0_213)">
<path d="M12.671 11.4564L6.50004 15.3231L0.325043 11.4564L6.50004 0.589722L12.671 11.4564ZM6.50004 16.5647L0.325043 12.6981L6.50004 21.9231L12.675 12.6981L6.50004 16.5647Z" fill="#3A3A3A"/>
</g>

</g></symbol><symbol id="ethereum" viewBox="0 0 13 22"><g fill="none">
<g clip-path="url(#clip0_0_143)">
<path d="M12.671 11.3796L6.50006 15.2463L0.325058 11.3796L6.50006 0.512939L12.671 11.3796ZM6.50006 16.4879L0.325058 12.6213L6.50006 21.8463L12.6751 12.6213L6.50006 16.4879Z" fill="white"/>
</g>

</g></symbol><symbol id="fast" viewBox="0 0 36 36"><g fill="none">
<path d="M20.25 13.875H3C2.385 13.875 1.875 13.365 1.875 12.75C1.875 12.135 2.385 11.625 3 11.625H20.25C20.865 11.625 21.375 12.135 21.375 12.75C21.375 13.365 20.865 13.875 20.25 13.875Z" fill="black"/>
<path d="M12 25.875H9C8.385 25.875 7.875 25.365 7.875 24.75C7.875 24.135 8.385 23.625 9 23.625H12C12.615 23.625 13.125 24.135 13.125 24.75C13.125 25.365 12.615 25.875 12 25.875Z" fill="black"/>
<path d="M21.75 25.875H15.75C15.135 25.875 14.625 25.365 14.625 24.75C14.625 24.135 15.135 23.625 15.75 23.625H21.75C22.365 23.625 22.875 24.135 22.875 24.75C22.875 25.365 22.365 25.875 21.75 25.875Z" fill="black"/>
<path d="M26.34 31.875H9.66C3.69 31.875 1.875 30.075 1.875 24.165V11.835C1.875 5.925 3.69 4.125 9.66 4.125H20.25C20.865 4.125 21.375 4.635 21.375 5.25C21.375 5.865 20.865 6.375 20.25 6.375H9.66C4.95 6.375 4.125 7.185 4.125 11.835V24.15C4.125 28.8 4.95 29.61 9.66 29.61H26.325C31.035 29.61 31.86 28.8 31.86 24.15V16.53C31.86 15.915 32.37 15.405 32.985 15.405C33.6 15.405 34.11 15.915 34.11 16.53V24.15C34.125 30.075 32.31 31.875 26.34 31.875Z" fill="black"/>
<path d="M26.9992 12.3756C26.7142 12.3756 26.4292 12.2706 26.2042 12.0456L23.9542 9.79564C23.5192 9.36064 23.5192 8.64064 23.9542 8.20564C24.3892 7.77064 25.1092 7.77064 25.5442 8.20564L26.9992 9.66064L32.2042 4.45564C32.6392 4.02064 33.3592 4.02064 33.7942 4.45564C34.2292 4.89064 34.2292 5.61064 33.7942 6.04564L27.7942 12.0456C27.5692 12.2706 27.2842 12.3756 26.9992 12.3756Z" fill="black"/>
</g></symbol><symbol id="growth" viewBox="0 0 36 36"><g fill="none">
<path d="M15.1655 27.2245H9.48047C8.86547 27.2245 8.35547 26.7145 8.35547 26.0995V18.4195C8.35547 16.8595 9.63045 15.5844 11.1905 15.5844H15.1655C15.7805 15.5844 16.2905 16.0944 16.2905 16.7094V26.0844C16.2905 26.7144 15.7805 27.2245 15.1655 27.2245ZM10.6055 24.9745H14.0404V17.8495H11.1905C10.8755 17.8495 10.6055 18.1044 10.6055 18.4344V24.9745Z" fill="#292D32"/>
<path d="M20.8344 27.2245H15.1494C14.5344 27.2245 14.0244 26.7145 14.0244 26.0995V11.6094C14.0244 10.0494 15.2994 8.77441 16.8594 8.77441H19.1394C20.6994 8.77441 21.9744 10.0494 21.9744 11.6094V26.0995C21.9594 26.7145 21.4644 27.2245 20.8344 27.2245ZM16.2894 24.9745H19.7244V11.6094C19.7244 11.2944 19.4694 11.0244 19.1394 11.0244H16.8594C16.5444 11.0244 16.2744 11.2794 16.2744 11.6094V24.9745H16.2894Z" fill="#292D32"/>
<path d="M26.5209 27.2246H20.8359C20.2209 27.2246 19.7109 26.7146 19.7109 26.0996V19.2744C19.7109 18.6594 20.2209 18.1494 20.8359 18.1494H24.8109C26.3709 18.1494 27.6459 19.4244 27.6459 20.9844V26.0996C27.6459 26.7146 27.1509 27.2246 26.5209 27.2246ZM21.9609 24.9746H25.3959V20.9844C25.3959 20.6694 25.1409 20.3994 24.8109 20.3994H21.9609V24.9746Z" fill="#292D32"/>
<path d="M22.5 34.125H13.5C5.355 34.125 1.875 30.645 1.875 22.5V13.5C1.875 5.355 5.355 1.875 13.5 1.875H22.5C30.645 1.875 34.125 5.355 34.125 13.5V22.5C34.125 30.645 30.645 34.125 22.5 34.125ZM13.5 4.125C6.585 4.125 4.125 6.585 4.125 13.5V22.5C4.125 29.415 6.585 31.875 13.5 31.875H22.5C29.415 31.875 31.875 29.415 31.875 22.5V13.5C31.875 6.585 29.415 4.125 22.5 4.125H13.5Z" fill="#292D32"/>
</g></symbol><symbol id="search" viewBox="0 0 24 24"><g fill="none">
<path d="M11.5 21.75C5.85 21.75 1.25 17.15 1.25 11.5C1.25 5.85 5.85 1.25 11.5 1.25C17.15 1.25 21.75 5.85 21.75 11.5C21.75 17.15 17.15 21.75 11.5 21.75ZM11.5 2.75C6.67 2.75 2.75 6.68 2.75 11.5C2.75 16.32 6.67 20.25 11.5 20.25C16.33 20.25 20.25 16.32 20.25 11.5C20.25 6.68 16.33 2.75 11.5 2.75Z" fill="#757575"/>
<path d="M22.0004 22.7499C21.8104 22.7499 21.6204 22.6799 21.4704 22.5299L19.4704 20.5299C19.1804 20.2399 19.1804 19.7599 19.4704 19.4699C19.7604 19.1799 20.2404 19.1799 20.5304 19.4699L22.5304 21.4699C22.8204 21.7599 22.8204 22.2399 22.5304 22.5299C22.3804 22.6799 22.1904 22.7499 22.0004 22.7499Z" fill="#757575"/>
</g></symbol></svg>