<svg xmlns="http://www.w3.org/2000/svg" xmlns:xlink="http://www.w3.org/1999/xlink"><defs>
<clipPath id="clip0_0_252">
<rect width="8.53125" height="14" fill="white"/>
</clipPath>

<clipPath id="clip0_0_213">
<rect width="13" height="21.3333" fill="white" transform="translate(0 0.589722)"/>
</clipPath>

<clipPath id="clip0_0_143">
<rect width="13" height="21.3333" fill="white" transform="translate(0 0.512939)"/>
</clipPath>
</defs><symbol id="ethereum-black" viewBox="0 0 20 32">
<title>ethereum-black</title>
<path d="M19.494 16.3l-9.494 5.8-9.5-5.8 9.5-16.3 9.494 16.3zM10 23.963l-9.5-5.8 9.5 13.837 9.5-13.837-9.5 5.8z"/>
</symbol><symbol id="ethereum-green" viewBox="0 0 9 14"><g fill="none">
<g id="ethereum 2" clip-path="url(#clip0_0_252)">
<path id="Vector" d="M8.31533 7.13126L4.26566 9.66876L0.213318 7.13126L4.26566 0L8.31533 7.13126ZM4.26566 10.4836L0.213318 7.9461L4.26566 14L8.318 7.9461L4.26566 10.4836Z" fill="#00AC4F"/>
</g>

</g></symbol><symbol id="ethereum-grey" viewBox="0 0 13 22"><g fill="none">
<g clip-path="url(#clip0_0_213)">
<path d="M12.671 11.4564L6.50004 15.3231L0.325043 11.4564L6.50004 0.589722L12.671 11.4564ZM6.50004 16.5647L0.325043 12.6981L6.50004 21.9231L12.675 12.6981L6.50004 16.5647Z" fill="#3A3A3A"/>
</g>

</g></symbol><symbol id="ethereum" viewBox="0 0 13 22"><g fill="none">
<g clip-path="url(#clip0_0_143)">
<path d="M12.671 11.3796L6.50006 15.2463L0.325058 11.3796L6.50006 0.512939L12.671 11.3796ZM6.50006 16.4879L0.325058 12.6213L6.50006 21.8463L12.6751 12.6213L6.50006 16.4879Z" fill="white"/>
</g>

</g></symbol><symbol id="fast" viewBox="0 0 32 32">
<title>fast</title>
<path d="M18 12.333h-15.333c-0.547 0-1-0.453-1-1s0.453-1 1-1h15.333c0.547 0 1 0.453 1 1s-0.453 1-1 1z"/>
<path d="M10.667 23h-2.667c-0.547 0-1-0.453-1-1s0.453-1 1-1h2.667c0.547 0 1 0.453 1 1s-0.453 1-1 1z"/>
<path d="M19.333 23h-5.333c-0.547 0-1-0.453-1-1s0.453-1 1-1h5.333c0.547 0 1 0.453 1 1s-0.453 1-1 1z"/>
<path d="M23.413 28.333h-14.827c-5.307 0-6.92-1.6-6.92-6.853v-10.96c0-5.253 1.613-6.853 6.92-6.853h9.413c0.547 0 1 0.453 1 1s-0.453 1-1 1h-9.413c-4.187 0-4.92 0.72-4.92 4.853v10.947c0 4.133 0.733 4.853 4.92 4.853h14.813c4.187 0 4.92-0.72 4.92-4.853v-6.773c0-0.547 0.453-1 1-1s1 0.453 1 1v6.773c0.013 5.267-1.6 6.867-6.907 6.867z"/>
<path d="M23.999 11.001c-0.253 0-0.507-0.093-0.707-0.293l-2-2c-0.387-0.387-0.387-1.027 0-1.413s1.027-0.387 1.413 0l1.293 1.293 4.627-4.627c0.387-0.387 1.027-0.387 1.413 0s0.387 1.027 0 1.413l-5.333 5.333c-0.2 0.2-0.453 0.293-0.707 0.293z"/>
</symbol><symbol id="growth" viewBox="0 0 32 32">
<title>growth</title>
<path d="M13.48 24.2h-5.053c-0.547 0-1-0.453-1-1v-6.827c0-1.387 1.133-2.52 2.52-2.52h3.533c0.547 0 1 0.453 1 1v8.333c0 0.56-0.453 1.013-1 1.013zM9.427 22.2h3.053v-6.333h-2.533c-0.28 0-0.52 0.227-0.52 0.52v5.813z"/>
<path d="M18.519 24.2h-5.053c-0.547 0-1-0.453-1-1v-12.88c0-1.387 1.133-2.52 2.52-2.52h2.027c1.387 0 2.52 1.133 2.52 2.52v12.88c-0.013 0.547-0.453 1-1.013 1zM14.479 22.2h3.053v-11.88c0-0.28-0.227-0.52-0.52-0.52h-2.027c-0.28 0-0.52 0.227-0.52 0.52v11.88h0.013z"/>
<path d="M23.574 24.2h-5.053c-0.547 0-1-0.453-1-1v-6.067c0-0.547 0.453-1 1-1h3.533c1.387 0 2.52 1.133 2.52 2.52v4.547c0 0.547-0.44 1-1 1zM19.521 22.2h3.053v-3.547c0-0.28-0.227-0.52-0.52-0.52h-2.533v4.067z"/>
<path d="M20 30.333h-8c-7.24 0-10.333-3.093-10.333-10.333v-8c0-7.24 3.093-10.333 10.333-10.333h8c7.24 0 10.333 3.093 10.333 10.333v8c0 7.24-3.093 10.333-10.333 10.333zM12 3.667c-6.147 0-8.333 2.187-8.333 8.333v8c0 6.147 2.187 8.333 8.333 8.333h8c6.147 0 8.333-2.187 8.333-8.333v-8c0-6.147-2.187-8.333-8.333-8.333h-8z"/>
</symbol><symbol id="icon-close-dark" viewBox="0 0 32 32">
<title>icon-close-dark</title>
<path d="M23.733 10.304l-1.504-1.504-5.963 5.963-5.963-5.963-1.504 1.504 5.963 5.963-5.963 5.963 1.504 1.504 5.963-5.963 5.963 5.963 1.504-1.504-5.963-5.963 5.963-5.963z"/>
</symbol><symbol id="moon" viewBox="0 0 32 32">
<title>moon-stars-svgrepo-com</title>
<path d="M26.533 3.076c-0.215-0.546-0.985-0.546-1.199 0l-0.574 1.46c-0.065 0.167-0.197 0.299-0.363 0.364l-1.455 0.576c-0.544 0.215-0.544 0.988 0 1.204l1.455 0.576c0.166 0.066 0.298 0.198 0.363 0.364l0.574 1.46c0.215 0.546 0.985 0.546 1.199 0l0.574-1.46c0.065-0.167 0.197-0.299 0.363-0.364l1.455-0.576c0.544-0.215 0.544-0.988 0-1.204l-1.455-0.576c-0.166-0.066-0.298-0.198-0.363-0.364l-0.574-1.46z"/>
<path d="M21.377 10.84c-0.215-0.546-0.985-0.546-1.199 0l-0.209 0.532c-0.065 0.167-0.197 0.299-0.363 0.364l-0.531 0.21c-0.544 0.215-0.544 0.988 0 1.204l0.531 0.21c0.166 0.066 0.298 0.198 0.363 0.365l0.209 0.532c0.215 0.546 0.985 0.546 1.199 0l0.209-0.532c0.065-0.167 0.197-0.299 0.363-0.365l0.531-0.21c0.544-0.215 0.544-0.988 0-1.204l-0.531-0.21c-0.166-0.066-0.298-0.198-0.363-0.364l-0.209-0.532z"/>
<path opacity="0.5" d="M16 29.333c7.364 0 13.333-5.97 13.333-13.333 0-0.617-0.925-0.719-1.244-0.191-1.518 2.512-4.274 4.191-7.423 4.191-4.787 0-8.667-3.88-8.667-8.667 0-3.149 1.679-5.905 4.191-7.423 0.528-0.319 0.426-1.244-0.191-1.244-7.364 0-13.333 5.97-13.333 13.333s5.97 13.333 13.333 13.333z"/>
</symbol><symbol id="search" viewBox="0 0 32 32">
<title>search</title>
<path d="M15.333 29c-7.533 0-13.667-6.133-13.667-13.667s6.133-13.667 13.667-13.667c7.533 0 13.667 6.133 13.667 13.667s-6.133 13.667-13.667 13.667zM15.333 3.667c-6.44 0-11.667 5.24-11.667 11.667s5.227 11.667 11.667 11.667c6.44 0 11.667-5.24 11.667-11.667s-5.227-11.667-11.667-11.667z"/>
<path d="M29.334 30.333c-0.253 0-0.507-0.093-0.707-0.293l-2.667-2.667c-0.387-0.387-0.387-1.027 0-1.413s1.027-0.387 1.413 0l2.667 2.667c0.387 0.387 0.387 1.027 0 1.413-0.2 0.2-0.453 0.293-0.707 0.293z"/>
</symbol><symbol id="sun" viewBox="0 0 32 32">
<title>sun-svgrepo-com</title>
<path d="M23.069 16c0 3.904-3.165 7.069-7.069 7.069s-7.069-3.165-7.069-7.069c0-3.904 3.165-7.069 7.069-7.069s7.069 3.165 7.069 7.069z"/>
<path d="M16 24.225c-4.535 0-8.225-3.69-8.225-8.225s3.69-8.225 8.225-8.225 8.225 3.69 8.225 8.225-3.69 8.225-8.225 8.225zM16 10.087c-3.261 0-5.913 2.653-5.913 5.913s2.653 5.913 5.913 5.913 5.913-2.653 5.913-5.913-2.653-5.913-5.913-5.913z"/>
<path d="M16 6.070c-0.638 0-1.156-0.518-1.156-1.156v-3.758c0-0.638 0.518-1.156 1.156-1.156s1.156 0.518 1.156 1.156v3.758c0 0.638-0.518 1.156-1.156 1.156z"/>
<path d="M16 32c-0.638 0-1.156-0.518-1.156-1.156v-3.758c0-0.638 0.518-1.156 1.156-1.156s1.156 0.518 1.156 1.156v3.758c0 0.639-0.518 1.156-1.156 1.156z"/>
<path d="M30.844 17.156h-3.758c-0.638 0-1.156-0.518-1.156-1.156s0.518-1.156 1.156-1.156h3.758c0.638 0 1.156 0.518 1.156 1.156s-0.517 1.156-1.156 1.156z"/>
<path d="M4.914 17.156h-3.758c-0.638 0-1.156-0.518-1.156-1.156s0.518-1.156 1.156-1.156h3.758c0.638 0 1.156 0.518 1.156 1.156s-0.518 1.156-1.156 1.156z"/>
<path d="M23.839 9.317c-0.296 0-0.592-0.113-0.817-0.339-0.451-0.451-0.451-1.183 0-1.635l2.658-2.657c0.451-0.451 1.183-0.452 1.635 0s0.451 1.183 0 1.635l-2.658 2.657c-0.226 0.226-0.522 0.339-0.817 0.339z"/>
<path d="M5.504 27.652c-0.296 0-0.592-0.113-0.817-0.339-0.451-0.451-0.451-1.183 0-1.635l2.658-2.658c0.451-0.451 1.183-0.451 1.635 0s0.451 1.183 0 1.635l-2.658 2.658c-0.226 0.226-0.521 0.339-0.817 0.339z"/>
<path d="M26.496 27.652c-0.296 0-0.592-0.113-0.817-0.339l-2.658-2.658c-0.451-0.451-0.451-1.183 0-1.635s1.183-0.451 1.635 0l2.658 2.658c0.451 0.451 0.451 1.183 0 1.635-0.226 0.226-0.521 0.339-0.817 0.339z"/>
<path d="M8.161 9.317c-0.296 0-0.592-0.113-0.817-0.339l-2.658-2.657c-0.451-0.451-0.451-1.183 0-1.635s1.183-0.452 1.635 0l2.658 2.657c0.451 0.451 0.451 1.183 0 1.635-0.226 0.226-0.521 0.339-0.817 0.339z"/>
</symbol><symbol id="verify" viewBox="0 0 32 32"><g fill="none">
<g id="verify 1">
<rect id="Rectangle 178" x="8" y="10" width="16" height="11" fill="white"/>
<path id="Vector" d="M28.7479 14.3182L26.9345 12.2115C26.5879 11.8115 26.3079 11.0648 26.3079 10.5315V8.26483C26.3079 6.8515 25.1479 5.6915 23.7345 5.6915H21.4679C20.9479 5.6915 20.1879 5.4115 19.7879 5.06483L17.6812 3.2515C16.7612 2.46483 15.2545 2.46483 14.3212 3.2515L12.2278 5.07817C11.8278 5.4115 11.0678 5.6915 10.5478 5.6915H8.24114C6.8278 5.6915 5.6678 6.8515 5.6678 8.26483V10.5448C5.6678 11.0648 5.3878 11.8115 5.05447 12.2115L3.25447 14.3315C2.48114 15.2515 2.48114 16.7448 3.25447 17.6648L5.05447 19.7848C5.3878 20.1848 5.6678 20.9315 5.6678 21.4515V23.7315C5.6678 25.1448 6.8278 26.3048 8.24114 26.3048H10.5478C11.0678 26.3048 11.8278 26.5848 12.2278 26.9315L14.3345 28.7448C15.2545 29.5315 16.7612 29.5315 17.6945 28.7448L19.8012 26.9315C20.2012 26.5848 20.9479 26.3048 21.4812 26.3048H23.7479C25.1612 26.3048 26.3212 25.1448 26.3212 23.7315V21.4648C26.3212 20.9448 26.6012 20.1848 26.9479 19.7848L28.7612 17.6782C29.5345 16.7582 29.5345 15.2382 28.7479 14.3182ZM21.5479 13.4782L15.1079 19.9182C14.9212 20.1048 14.6679 20.2115 14.4012 20.2115C14.1345 20.2115 13.8812 20.1048 13.6945 19.9182L10.4678 16.6915C10.0811 16.3048 10.0811 15.6648 10.4678 15.2782C10.8545 14.8915 11.4945 14.8915 11.8811 15.2782L14.4012 17.7982L20.1345 12.0648C20.5212 11.6782 21.1612 11.6782 21.5479 12.0648C21.9345 12.4515 21.9345 13.0915 21.5479 13.4782Z" fill="#1E93FF"/>
</g>
</g></symbol></svg>