<!-- Generated by IcoMoon.io -->
<svg version="1.1" xmlns="http://www.w3.org/2000/svg" width="32" height="32" viewBox="0 0 32 32">
<title>moon-stars-svgrepo-com</title>
<path d="M26.533 3.076c-0.215-0.546-0.985-0.546-1.199 0l-0.574 1.46c-0.065 0.167-0.197 0.299-0.363 0.364l-1.455 0.576c-0.544 0.215-0.544 0.988 0 1.204l1.455 0.576c0.166 0.066 0.298 0.198 0.363 0.364l0.574 1.46c0.215 0.546 0.985 0.546 1.199 0l0.574-1.46c0.065-0.167 0.197-0.299 0.363-0.364l1.455-0.576c0.544-0.215 0.544-0.988 0-1.204l-1.455-0.576c-0.166-0.066-0.298-0.198-0.363-0.364l-0.574-1.46z"></path>
<path d="M21.377 10.84c-0.215-0.546-0.985-0.546-1.199 0l-0.209 0.532c-0.065 0.167-0.197 0.299-0.363 0.364l-0.531 0.21c-0.544 0.215-0.544 0.988 0 1.204l0.531 0.21c0.166 0.066 0.298 0.198 0.363 0.365l0.209 0.532c0.215 0.546 0.985 0.546 1.199 0l0.209-0.532c0.065-0.167 0.197-0.299 0.363-0.365l0.531-0.21c0.544-0.215 0.544-0.988 0-1.204l-0.531-0.21c-0.166-0.066-0.298-0.198-0.363-0.364l-0.209-0.532z"></path>
<path opacity="0.5" d="M16 29.333c7.364 0 13.333-5.97 13.333-13.333 0-0.617-0.925-0.719-1.244-0.191-1.518 2.512-4.274 4.191-7.423 4.191-4.787 0-8.667-3.88-8.667-8.667 0-3.149 1.679-5.905 4.191-7.423 0.528-0.319 0.426-1.244-0.191-1.244-7.364 0-13.333 5.97-13.333 13.333s5.97 13.333 13.333 13.333z"></path>
</svg>
