<!-- Generated by IcoMoon.io -->
<svg version="1.1" xmlns="http://www.w3.org/2000/svg" width="32" height="32" viewBox="0 0 32 32">
<title>sun-svgrepo-com</title>
<path d="M23.069 16c0 3.904-3.165 7.069-7.069 7.069s-7.069-3.165-7.069-7.069c0-3.904 3.165-7.069 7.069-7.069s7.069 3.165 7.069 7.069z"></path>
<path d="M16 24.225c-4.535 0-8.225-3.69-8.225-8.225s3.69-8.225 8.225-8.225 8.225 3.69 8.225 8.225-3.69 8.225-8.225 8.225zM16 10.087c-3.261 0-5.913 2.653-5.913 5.913s2.653 5.913 5.913 5.913 5.913-2.653 5.913-5.913-2.653-5.913-5.913-5.913z"></path>
<path d="M16 6.070c-0.638 0-1.156-0.518-1.156-1.156v-3.758c0-0.638 0.518-1.156 1.156-1.156s1.156 0.518 1.156 1.156v3.758c0 0.638-0.518 1.156-1.156 1.156z"></path>
<path d="M16 32c-0.638 0-1.156-0.518-1.156-1.156v-3.758c0-0.638 0.518-1.156 1.156-1.156s1.156 0.518 1.156 1.156v3.758c0 0.639-0.518 1.156-1.156 1.156z"></path>
<path d="M30.844 17.156h-3.758c-0.638 0-1.156-0.518-1.156-1.156s0.518-1.156 1.156-1.156h3.758c0.638 0 1.156 0.518 1.156 1.156s-0.517 1.156-1.156 1.156z"></path>
<path d="M4.914 17.156h-3.758c-0.638 0-1.156-0.518-1.156-1.156s0.518-1.156 1.156-1.156h3.758c0.638 0 1.156 0.518 1.156 1.156s-0.518 1.156-1.156 1.156z"></path>
<path d="M23.839 9.317c-0.296 0-0.592-0.113-0.817-0.339-0.451-0.451-0.451-1.183 0-1.635l2.658-2.657c0.451-0.451 1.183-0.452 1.635 0s0.451 1.183 0 1.635l-2.658 2.657c-0.226 0.226-0.522 0.339-0.817 0.339z"></path>
<path d="M5.504 27.652c-0.296 0-0.592-0.113-0.817-0.339-0.451-0.451-0.451-1.183 0-1.635l2.658-2.658c0.451-0.451 1.183-0.451 1.635 0s0.451 1.183 0 1.635l-2.658 2.658c-0.226 0.226-0.521 0.339-0.817 0.339z"></path>
<path d="M26.496 27.652c-0.296 0-0.592-0.113-0.817-0.339l-2.658-2.658c-0.451-0.451-0.451-1.183 0-1.635s1.183-0.451 1.635 0l2.658 2.658c0.451 0.451 0.451 1.183 0 1.635-0.226 0.226-0.521 0.339-0.817 0.339z"></path>
<path d="M8.161 9.317c-0.296 0-0.592-0.113-0.817-0.339l-2.658-2.657c-0.451-0.451-0.451-1.183 0-1.635s1.183-0.452 1.635 0l2.658 2.657c0.451 0.451 0.451 1.183 0 1.635-0.226 0.226-0.521 0.339-0.817 0.339z"></path>
</svg>
